<svg xmlns="http://www.w3.org/2000/svg" width="121.999" height="45" viewBox="0 0 121.999 45">
  <g id="Logo" transform="translate(-30 -33)">
    <g id="Vektorový_inteligentní_objekt" data-name="Vektorový inteligentní objekt" transform="translate(-384.519 -88.491)">
      <g id="Group_20" data-name="Group 20">
        <g id="Group_19" data-name="Group 19">
          <path id="Path_55" data-name="Path 55" d="M436.824,165.9a5.264,5.264,0,0,1-2.722.595,3.214,3.214,0,0,1-2.341-.846,3.74,3.74,0,0,1-.87-2.769,9.1,9.1,0,0,1-3.635,2.769,12.252,12.252,0,0,1-7.449.48,6.8,6.8,0,0,1-2.431-1.144,5.458,5.458,0,0,1-1.628-2.036,7,7,0,0,1-.6-3.044,7.093,7.093,0,0,1,.669-3.3,5.952,5.952,0,0,1,1.762-2.082,7.969,7.969,0,0,1,2.5-1.213,29.155,29.155,0,0,1,2.877-.686q1.561-.32,2.967-.481a16.083,16.083,0,0,0,2.475-.458,4.073,4.073,0,0,0,1.695-.87,2.152,2.152,0,0,0,.624-1.67,3.974,3.974,0,0,0-.468-2.059,3.248,3.248,0,0,0-1.205-1.189,4.793,4.793,0,0,0-1.65-.549,12.057,12.057,0,0,0-1.807-.138,7.855,7.855,0,0,0-4.014.939,4.008,4.008,0,0,0-1.739,3.547h-3.791a8.564,8.564,0,0,1,.892-3.707,6.884,6.884,0,0,1,2.142-2.449,8.885,8.885,0,0,1,3.055-1.35,15.768,15.768,0,0,1,3.679-.411,21.1,21.1,0,0,1,3.1.228,7.978,7.978,0,0,1,2.788.936,5.407,5.407,0,0,1,2.006,1.987,6.47,6.47,0,0,1,.758,3.333v12.148a9.2,9.2,0,0,0,.157,2.008q.155.639,1.048.639a4.508,4.508,0,0,0,1.16-.183Zm-6.157-12.128a4.668,4.668,0,0,1-1.872.8q-1.161.251-2.431.41t-2.565.364a9.247,9.247,0,0,0-2.319.66,4.22,4.22,0,0,0-1.673,1.3,3.687,3.687,0,0,0-.647,2.3,3.08,3.08,0,0,0,1.36,2.687,4.069,4.069,0,0,0,1.405.592,7.617,7.617,0,0,0,1.695.182,8.812,8.812,0,0,0,3.211-.524,6.714,6.714,0,0,0,2.186-1.32,5.2,5.2,0,0,0,1.249-1.73,4.457,4.457,0,0,0,.4-1.754Z" fill="#fff"/>
          <path id="Path_56" data-name="Path 56" d="M443.781,142.328v4.988h.089a10.488,10.488,0,0,1,3.39-4.256,8.353,8.353,0,0,1,5.085-1.281V145.9a10.489,10.489,0,0,0-3.88.64,6.12,6.12,0,0,0-2.587,1.876,7.856,7.856,0,0,0-1.427,3,16.578,16.578,0,0,0-.446,4.05v10.525h-3.791V142.328Z" fill="#fff"/>
          <path id="Path_57" data-name="Path 57" d="M459.214,142.328v23.659h-3.791V142.328Z" fill="#fff"/>
          <path id="Path_58" data-name="Path 58" d="M481.917,165.988v-3.2h-.089a5.638,5.638,0,0,1-2.944,2.838,11,11,0,0,1-4.416.87,10.178,10.178,0,0,1-4.661-1.007,9.612,9.612,0,0,1-3.3-2.7,11.825,11.825,0,0,1-1.985-3.936,16.533,16.533,0,0,1-.669-4.76,17.077,17.077,0,0,1,.647-4.759,11.3,11.3,0,0,1,1.962-3.912,9.512,9.512,0,0,1,3.3-2.655,10.269,10.269,0,0,1,4.617-.983,10.968,10.968,0,0,1,1.917.183,9.5,9.5,0,0,1,2.052.618,8.686,8.686,0,0,1,1.94,1.144,6.239,6.239,0,0,1,1.54,1.762h.089V135.342h3.791v30.646Zm-13.626-8.4a8.792,8.792,0,0,0,1.293,2.815,6.389,6.389,0,0,0,2.23,1.968A6.631,6.631,0,0,0,475,163.1a6.382,6.382,0,0,0,3.257-.777,6.57,6.57,0,0,0,2.185-2.037,8.661,8.661,0,0,0,1.227-2.861,14.225,14.225,0,0,0-.022-6.613,8.444,8.444,0,0,0-1.271-2.86,6.55,6.55,0,0,0-2.252-1.99,6.89,6.89,0,0,0-3.347-.756,6.376,6.376,0,0,0-3.256.778,6.122,6.122,0,0,0-2.142,2.059,9.091,9.091,0,0,0-1.159,2.929,15.926,15.926,0,0,0-.358,3.387A12.346,12.346,0,0,0,468.29,157.59Z" fill="#fff"/>
          <path id="Path_59" data-name="Path 59" d="M507.875,164.478a10.283,10.283,0,0,1-6.512,2.013,11.587,11.587,0,0,1-4.8-.915,9.456,9.456,0,0,1-3.412-2.562,10.962,10.962,0,0,1-2.075-3.936,19.4,19.4,0,0,1-.78-4.989,14.561,14.561,0,0,1,.8-4.942,11.886,11.886,0,0,1,2.252-3.89,10.143,10.143,0,0,1,7.783-3.477,9.272,9.272,0,0,1,5.107,1.3A10.237,10.237,0,0,1,509.5,146.4a13.289,13.289,0,0,1,1.695,4.393,19.263,19.263,0,0,1,.379,4.53H494.315a9.617,9.617,0,0,0,.358,2.952,6.729,6.729,0,0,0,1.293,2.471,6.378,6.378,0,0,0,2.275,1.716,7.68,7.68,0,0,0,3.257.64,6.437,6.437,0,0,0,3.947-1.144,5.557,5.557,0,0,0,2.029-3.478h3.747A9.517,9.517,0,0,1,507.875,164.478Zm-.915-15.193a6.666,6.666,0,0,0-1.382-2.128,6.574,6.574,0,0,0-2.052-1.419,6.362,6.362,0,0,0-2.61-.527,6.466,6.466,0,0,0-2.654.527,6.141,6.141,0,0,0-2.029,1.441,6.938,6.938,0,0,0-1.338,2.129,8.273,8.273,0,0,0-.58,2.585h13.249A8.184,8.184,0,0,0,506.961,149.284Z" fill="#fff"/>
          <path id="Path_60" data-name="Path 60" d="M531.827,164.478a10.284,10.284,0,0,1-6.512,2.013,11.587,11.587,0,0,1-4.8-.915,9.454,9.454,0,0,1-3.412-2.562,10.961,10.961,0,0,1-2.075-3.936,19.4,19.4,0,0,1-.78-4.989,14.561,14.561,0,0,1,.8-4.942,11.886,11.886,0,0,1,2.252-3.89,10.143,10.143,0,0,1,7.783-3.477,9.272,9.272,0,0,1,5.107,1.3,10.237,10.237,0,0,1,3.257,3.318,13.291,13.291,0,0,1,1.695,4.393,19.259,19.259,0,0,1,.379,4.53H518.267a9.617,9.617,0,0,0,.358,2.952,6.73,6.73,0,0,0,1.293,2.471,6.379,6.379,0,0,0,2.275,1.716,7.68,7.68,0,0,0,3.257.64,6.439,6.439,0,0,0,3.947-1.144,5.558,5.558,0,0,0,2.029-3.478h3.746A9.512,9.512,0,0,1,531.827,164.478Zm-.915-15.193a6.682,6.682,0,0,0-1.382-2.128,6.587,6.587,0,0,0-2.051-1.419,6.362,6.362,0,0,0-2.61-.527,6.463,6.463,0,0,0-2.654.527,6.119,6.119,0,0,0-2.029,1.441,6.937,6.937,0,0,0-1.338,2.129,8.274,8.274,0,0,0-.58,2.585h13.249A8.183,8.183,0,0,0,530.913,149.284Z" fill="#fff"/>
        </g>
        <path id="Symbol" d="M534.246,138.379a11.6,11.6,0,0,1,2.167,6.772,11.725,11.725,0,0,1-.237,2.351,17.415,17.415,0,0,0-10.11-11.321c-25.116-11.081-51.183-21.007-77.091-1.114-13.983-.9-26.694,1.532-34.455,10.1,6.31-9.271,20.668-12.571,33.838-11.806,24.763-17.8,43.923-13.7,78.013-.088h9.045a1.07,1.07,0,0,1,.961.573,1.1,1.1,0,0,1-.029,1.131l-2.1,3.4Zm-81.113-5.205h36.619a15.556,15.556,0,0,0,11.74-5.393,15.482,15.482,0,0,1-10.343,3.978l-5.119.191,1.522-6.994L484.687,132Z" fill="#fff" fill-rule="evenodd"/>
      </g>
    </g>
  </g>
</svg>
